<svg width="224" height="16" viewBox="0 0 224 16" fill="none" xmlns="http://www.w3.org/2000/svg">
<path d="M5.08 7.86L4.24 15H0.68L2.94 0.3L8.9 8.84L14.88 0.3L17.14 15H13.58L12.74 7.86L8.9 13.7L5.08 7.86ZM21.4925 12.3L21.7325 9.72H28.6725L28.8925 12.3H21.4925ZM25.1525 6.14L23.1925 10.66L23.3525 11.4L21.6125 15H17.7925L25.1525 0.12L32.5325 15H28.6925L27.0125 11.54L27.1325 10.68L25.1525 6.14ZM37.4995 8.66H40.9995L45.3795 15H41.4195L37.4995 8.66ZM33.9995 0.999999H37.3795V15H33.9995V0.999999ZM36.1195 3.86V0.999999H39.0995C40.2995 0.999999 41.2995 1.19333 42.0995 1.58C42.8995 1.96667 43.5062 2.50667 43.9195 3.2C44.3329 3.88 44.5395 4.67333 44.5395 5.58C44.5395 6.47333 44.3329 7.26667 43.9195 7.96C43.5062 8.64 42.8995 9.17333 42.0995 9.56C41.2995 9.94667 40.2995 10.14 39.0995 10.14H36.1195V7.52H38.8595C39.3129 7.52 39.6995 7.45333 40.0195 7.32C40.3529 7.17333 40.6062 6.96667 40.7795 6.7C40.9529 6.42 41.0395 6.08667 41.0395 5.7C41.0395 5.31333 40.9529 4.98667 40.7795 4.72C40.6062 4.44 40.3529 4.22667 40.0195 4.08C39.6995 3.93333 39.3129 3.86 38.8595 3.86H36.1195ZM46.9488 0.999999H50.4288V15H46.9488V0.999999ZM51.9488 15H49.1888V12H51.8288C52.3621 12 52.8754 11.9333 53.3688 11.8C53.8754 11.6667 54.3154 11.4467 54.6888 11.14C55.0754 10.8333 55.3821 10.4267 55.6088 9.92C55.8354 9.4 55.9488 8.76 55.9488 8C55.9488 7.24 55.8354 6.60667 55.6088 6.1C55.3821 5.58 55.0754 5.16667 54.6888 4.86C54.3154 4.55333 53.8754 4.33333 53.3688 4.2C52.8754 4.06667 52.3621 4 51.8288 4H49.1888V0.999999H51.9488C53.4821 0.999999 54.8088 1.28667 55.9288 1.86C57.0488 2.43333 57.9154 3.24 58.5288 4.28C59.1421 5.32 59.4488 6.56 59.4488 8C59.4488 9.42667 59.1421 10.6667 58.5288 11.72C57.9154 12.76 57.0488 13.5667 55.9288 14.14C54.8088 14.7133 53.4821 15 51.9488 15ZM63.2113 12.3L63.4513 9.72H70.3913L70.6113 12.3H63.2113ZM66.8713 6.14L64.9113 10.66L65.0713 11.4L63.3313 15H59.5112L66.8713 0.12L74.2513 15H70.4113L68.7313 11.54L68.8513 10.68L66.8713 6.14ZM85.3783 0.999999H88.6383V15.7L78.9583 7.12V15H75.7183V0.3L85.3783 8.88V0.999999ZM99.4572 0.999999H103.337L98.4372 9.3V15H94.9972V9.32L90.0972 0.999999H93.9772L96.7172 6.26L99.4572 0.999999ZM105.008 12.3L105.248 9.72H112.188L112.408 12.3H105.008ZM108.668 6.14L106.708 10.66L106.868 11.4L105.128 15H101.308L108.668 0.12L116.048 15H112.208L110.528 11.54L110.648 10.68L108.668 6.14ZM127.175 0.999999H130.435V15.7L120.755 7.12V15H117.515V0.3L127.175 8.88V0.999999ZM133.254 13.64C133.254 13.1333 133.434 12.7 133.794 12.34C134.154 11.98 134.601 11.8 135.134 11.8C135.694 11.8 136.147 11.98 136.494 12.34C136.841 12.7 137.014 13.1333 137.014 13.64C137.014 14.1467 136.841 14.58 136.494 14.94C136.147 15.3 135.694 15.48 135.134 15.48C134.601 15.48 134.154 15.3 133.794 14.94C133.434 14.58 133.254 14.1467 133.254 13.64ZM141.379 10.08C141.659 10.5867 141.973 11.0267 142.319 11.4C142.679 11.7733 143.066 12.06 143.479 12.26C143.906 12.46 144.353 12.56 144.819 12.56C145.313 12.56 145.719 12.44 146.039 12.2C146.359 11.9467 146.519 11.6067 146.519 11.18C146.519 10.82 146.426 10.5333 146.239 10.32C146.053 10.0933 145.753 9.88 145.339 9.68C144.926 9.48 144.379 9.25333 143.699 9C143.366 8.88 142.979 8.71333 142.539 8.5C142.113 8.28667 141.706 8.01333 141.319 7.68C140.933 7.33333 140.613 6.92 140.359 6.44C140.106 5.94667 139.979 5.35333 139.979 4.66C139.979 3.83333 140.193 3.12 140.619 2.52C141.059 1.92 141.646 1.46667 142.379 1.16C143.126 0.84 143.953 0.68 144.859 0.68C145.793 0.68 146.599 0.833333 147.279 1.14C147.973 1.44667 148.546 1.83333 148.999 2.3C149.453 2.76667 149.799 3.24 150.039 3.72L147.459 5.16C147.259 4.82667 147.026 4.54 146.759 4.3C146.506 4.04667 146.219 3.85333 145.899 3.72C145.593 3.57333 145.259 3.5 144.899 3.5C144.419 3.5 144.053 3.60667 143.799 3.82C143.546 4.02 143.419 4.27333 143.419 4.58C143.419 4.9 143.539 5.18 143.779 5.42C144.033 5.66 144.386 5.88 144.839 6.08C145.306 6.28 145.866 6.49333 146.519 6.72C147.013 6.90667 147.473 7.12667 147.899 7.38C148.326 7.62 148.699 7.91333 149.019 8.26C149.353 8.60667 149.613 9.00667 149.799 9.46C149.986 9.91333 150.079 10.4333 150.079 11.02C150.079 11.7267 149.933 12.36 149.639 12.92C149.359 13.4667 148.973 13.9267 148.479 14.3C147.999 14.6733 147.446 14.9533 146.819 15.14C146.206 15.34 145.573 15.44 144.919 15.44C144.013 15.44 143.166 15.28 142.379 14.96C141.606 14.6267 140.933 14.18 140.359 13.62C139.786 13.06 139.339 12.4467 139.019 11.78L141.379 10.08ZM155.219 8C155.219 8.85333 155.413 9.59333 155.799 10.22C156.186 10.8333 156.693 11.3 157.319 11.62C157.959 11.94 158.659 12.1 159.419 12.1C160.086 12.1 160.673 12.0133 161.179 11.84C161.686 11.6667 162.139 11.44 162.539 11.16C162.939 10.88 163.293 10.58 163.599 10.26V13.9C163.039 14.34 162.426 14.6867 161.759 14.94C161.093 15.1933 160.246 15.32 159.219 15.32C158.099 15.32 157.066 15.1467 156.119 14.8C155.173 14.4533 154.359 13.9533 153.679 13.3C152.999 12.6467 152.473 11.8733 152.099 10.98C151.726 10.0867 151.539 9.09333 151.539 8C151.539 6.90667 151.726 5.91333 152.099 5.02C152.473 4.12667 152.999 3.35333 153.679 2.7C154.359 2.04667 155.173 1.54667 156.119 1.2C157.066 0.853333 158.099 0.68 159.219 0.68C160.246 0.68 161.093 0.806666 161.759 1.06C162.426 1.31333 163.039 1.66 163.599 2.1V5.74C163.293 5.42 162.939 5.12 162.539 4.84C162.139 4.54667 161.686 4.32 161.179 4.16C160.673 3.98667 160.086 3.9 159.419 3.9C158.659 3.9 157.959 4.06 157.319 4.38C156.693 4.7 156.186 5.16667 155.799 5.78C155.413 6.39333 155.219 7.13333 155.219 8ZM167.303 9.14V6.1H177.903V9.14H167.303ZM175.763 0.999999H179.143V15H175.763V0.999999ZM166.363 0.999999H169.743V15H166.363V0.999999ZM184.865 8C184.865 8.82667 185.025 9.56 185.345 10.2C185.679 10.8267 186.139 11.32 186.725 11.68C187.325 12.04 188.025 12.22 188.825 12.22C189.612 12.22 190.299 12.04 190.885 11.68C191.485 11.32 191.945 10.8267 192.265 10.2C192.599 9.56 192.765 8.82667 192.765 8C192.765 7.17333 192.605 6.44667 192.285 5.82C191.965 5.18 191.512 4.68 190.925 4.32C190.339 3.96 189.639 3.78 188.825 3.78C188.025 3.78 187.325 3.96 186.725 4.32C186.139 4.68 185.679 5.18 185.345 5.82C185.025 6.44667 184.865 7.17333 184.865 8ZM181.285 8C181.285 6.92 181.472 5.93333 181.845 5.04C182.232 4.14667 182.765 3.37333 183.445 2.72C184.125 2.06667 184.925 1.56667 185.845 1.22C186.765 0.86 187.759 0.68 188.825 0.68C189.905 0.68 190.899 0.86 191.805 1.22C192.725 1.56667 193.525 2.06667 194.205 2.72C194.885 3.37333 195.412 4.14667 195.785 5.04C196.159 5.93333 196.345 6.92 196.345 8C196.345 9.08 196.159 10.0733 195.785 10.98C195.425 11.8867 194.905 12.6733 194.225 13.34C193.559 14.0067 192.765 14.5267 191.845 14.9C190.925 15.26 189.919 15.44 188.825 15.44C187.719 15.44 186.705 15.26 185.785 14.9C184.865 14.5267 184.065 14.0067 183.385 13.34C182.719 12.6733 182.199 11.8867 181.825 10.98C181.465 10.0733 181.285 9.08 181.285 8ZM201.291 8C201.291 8.82667 201.451 9.56 201.771 10.2C202.105 10.8267 202.565 11.32 203.151 11.68C203.751 12.04 204.451 12.22 205.251 12.22C206.038 12.22 206.725 12.04 207.311 11.68C207.911 11.32 208.371 10.8267 208.691 10.2C209.025 9.56 209.191 8.82667 209.191 8C209.191 7.17333 209.031 6.44667 208.711 5.82C208.391 5.18 207.938 4.68 207.351 4.32C206.765 3.96 206.065 3.78 205.251 3.78C204.451 3.78 203.751 3.96 203.151 4.32C202.565 4.68 202.105 5.18 201.771 5.82C201.451 6.44667 201.291 7.17333 201.291 8ZM197.711 8C197.711 6.92 197.898 5.93333 198.271 5.04C198.658 4.14667 199.191 3.37333 199.871 2.72C200.551 2.06667 201.351 1.56667 202.271 1.22C203.191 0.86 204.185 0.68 205.251 0.68C206.331 0.68 207.325 0.86 208.231 1.22C209.151 1.56667 209.951 2.06667 210.631 2.72C211.311 3.37333 211.838 4.14667 212.211 5.04C212.585 5.93333 212.771 6.92 212.771 8C212.771 9.08 212.585 10.0733 212.211 10.98C211.851 11.8867 211.331 12.6733 210.651 13.34C209.985 14.0067 209.191 14.5267 208.271 14.9C207.351 15.26 206.345 15.44 205.251 15.44C204.145 15.44 203.131 15.26 202.211 14.9C201.291 14.5267 200.491 14.0067 199.811 13.34C199.145 12.6733 198.625 11.8867 198.251 10.98C197.891 10.0733 197.711 9.08 197.711 8ZM214.937 0.999999H218.317V12.1H223.937V15H214.937V0.999999Z" fill="white"/>
</svg>
